<svg width="16" height="16" viewBox="0 0 16 16" fill="none" xmlns="http://www.w3.org/2000/svg">
<path d="M1.33301 14.6666L4.9528 13.5125C5.92502 14.0465 7.01877 14.3221 8.1212 14.3221C11.7323 14.3221 14.6663 11.4108 14.6663 7.82771C14.6663 4.2446 11.7323 1.33331 8.1212 1.33331C4.51009 1.33331 1.57606 4.2446 1.57606 7.82771C1.57606 9.00773 1.89724 10.1705 2.51356 11.1783L1.33301 14.6666ZM8.1212 13C7.06217 13 6.21842 12.5771 5.33301 12L3.33301 12.6666L3.99967 11C3.32259 10.0784 2.99967 8.96814 2.99967 7.83119C2.99967 4.851 5.11773 2.66665 8.1212 2.66665C11.1247 2.66665 13.333 4.84752 13.333 7.82771C13.333 10.8079 11.1247 13 8.1212 13ZM9.87467 11.0835C10.3695 11.0835 11.1768 10.7735 11.3764 10.2911C11.4545 10.093 11.524 9.85183 11.524 9.6365C11.524 9.60205 11.524 9.55037 11.5066 9.5073C11.4459 9.40394 10.0309 8.67181 9.88336 8.67181C9.79308 8.67181 9.66947 8.80549 9.53697 8.96591L9.33461 9.21321C9.19933 9.37362 9.06738 9.5073 8.96322 9.5073C8.89377 9.5073 8.83301 9.48146 8.77224 9.44701C8.28613 9.20584 7.86079 8.95605 7.46148 8.57707C7.13162 8.26699 6.76704 7.80188 6.57606 7.39705C6.55002 7.35399 6.53266 7.31092 6.53266 7.26785C6.53266 7.06975 7.13162 6.69938 7.13162 6.37207C7.13162 6.28594 6.68891 5.11454 6.62815 4.96811C6.54134 4.74417 6.49794 4.67526 6.26356 4.67526C6.15072 4.67526 6.04655 4.64942 5.94238 4.64942C5.76009 4.64942 5.6212 4.71833 5.49099 4.83891C5.07433 5.22651 4.86599 5.63133 4.84863 6.19981V6.26871C4.83995 6.86303 5.13509 7.45734 5.46495 7.93969C6.21148 9.03357 6.98405 9.98965 8.22537 10.5495C8.59863 10.7218 9.45801 11.0835 9.87467 11.0835Z" fill="#60A173"/>
</svg>
